<?xml version="1.0" encoding="UTF-8" standalone="no"?>
<!-- Created with Inkscape (http://www.inkscape.org/) -->

<svg
   width="83.317619mm"
   height="21.085545mm"
   viewBox="0 0 83.317619 21.085545"
   version="1.1"
   id="svg2265"
   xmlns="http://www.w3.org/2000/svg"
   xmlns:svg="http://www.w3.org/2000/svg">
  <defs
     id="defs2262" />
  <g
     id="layer14"
     style="display:inline">
    <g
       id="g334"
       transform="matrix(0.35277777,0,0,-0.35277777,26.75255,7.2445795)" />
    <g
       id="g340"
       transform="matrix(0.35277777,0,0,-0.35277777,26.75255,7.2445795)">
      <path
         d="M 16.56505,0 C 16.56505,9.14873 9.14873,16.56505 0,16.56505 -9.14873,16.56505 -16.56505,9.14873 -16.56505,0 c 0,-9.14873 7.41632,-16.56505 16.56505,-16.56505 9.14873,0 16.56505,7.41632 16.56505,16.56505 z"
         style="fill:none;stroke:#000000;stroke-width:0.79701;stroke-linecap:butt;stroke-linejoin:miter;stroke-miterlimit:10;stroke-dasharray:none;stroke-opacity:1"
         id="path342" />
    </g>
    <g
       id="g348"
       transform="matrix(0.35277777,0,0,-0.35277777,24.695149,8.0492658)">
      <g
         id="g350">
        <g
           id="g352"
           transform="translate(-173.306,-535.94)">
          <text
             xml:space="preserve"
             transform="matrix(1,0,0,-1,173.306,535.94)"
             style="font-variant:normal;font-weight:normal;font-size:9.9626px;font-family:LMMathItalic10;-inkscape-font-specification:LMMathItalic10-Regular;writing-mode:lr-tb;fill:#000000;fill-opacity:1;fill-rule:nonzero;stroke:none"
             id="text356"><tspan
               x="0"
               y="0"
               id="tspan354">S</tspan></text>
          <text
             xml:space="preserve"
             transform="matrix(1,0,0,-1,179.989,535.94)"
             style="font-variant:normal;font-weight:normal;font-size:9.9626px;font-family:LMRoman10;-inkscape-font-specification:LMRoman10-Regular;writing-mode:lr-tb;fill:#000000;fill-opacity:1;fill-rule:nonzero;stroke:none"
             id="text360"><tspan
               x="0"
               y="0"
               id="tspan358">0</tspan></text>
          <g
             id="g362"
             transform="translate(173.306,535.94)" />
        </g>
      </g>
      <g
         id="g364"
         transform="translate(5.832,-3.719)" />
    </g>
    <g
       id="g366"
       transform="matrix(0.35277777,0,0,-0.35277777,26.75255,8.5565602)">
      <g
         id="g368" />
      <g
         id="g370"
         transform="translate(0,3.719)" />
    </g>
    <g
       id="g400"
       transform="matrix(0.35277777,0,0,-0.35277777,56.75277,8.5565602)">
      <g
         id="g402" />
      <g
         id="g404"
         transform="translate(-85.04,3.719)" />
    </g>
  </g>
</svg>
